<?xml version="1.0" encoding="UTF-8" standalone="no"?>
<!DOCTYPE svg PUBLIC "-//W3C//DTD SVG 1.1//EN"
 "http://www.w3.org/Graphics/SVG/1.1/DTD/svg11.dtd">
<!-- Generated by graphviz version 2.44.1 (20200629.0846)
 -->
<!-- Pages: 1 -->
<svg width="83pt" height="210pt"
 viewBox="0.00 0.00 82.95 209.72" xmlns="http://www.w3.org/2000/svg" xmlns:xlink="http://www.w3.org/1999/xlink">
<g id="graph0" class="graph" transform="scale(1 1) rotate(0) translate(4 205.72)">
<polygon fill="white" stroke="transparent" points="-4,4 -4,-205.72 78.95,-205.72 78.95,4 -4,4"/>
<!-- A -->
<g id="node1" class="node">
<title>A</title>
<polygon fill="lightgray" stroke="black" points="28.98,-201.72 5.98,-201.72 5.98,-183.72 28.98,-183.72 28.98,-201.72"/>
<text text-anchor="middle" x="17.48" y="-190.52" font-family="Times,serif" font-size="9.00">A</text>
</g>
<!-- 28 -->
<g id="node4" class="node">
<title>28</title>
<ellipse fill="white" stroke="black" cx="37.48" cy="-129.34" rx="18.27" ry="18.27"/>
<text text-anchor="middle" x="37.48" y="-127.14" font-family="Times,serif" font-size="9.00">28</text>
</g>
<!-- A&#45;&gt;28 -->
<g id="edge1" class="edge">
<title>A&#45;&gt;28</title>
<path fill="none" stroke="red" stroke-width="0.45" d="M20.09,-183.7C22.34,-176.8 25.71,-166.45 28.89,-156.7"/>
<polygon fill="red" stroke="red" stroke-width="0.45" points="32.3,-157.51 32.08,-146.92 25.65,-155.34 32.3,-157.51"/>
</g>
<!-- B -->
<g id="node2" class="node">
<title>B</title>
<polygon fill="lightgray" stroke="black" points="69.98,-201.72 46.98,-201.72 46.98,-183.72 69.98,-183.72 69.98,-201.72"/>
<text text-anchor="middle" x="58.48" y="-190.52" font-family="Times,serif" font-size="9.00">B</text>
</g>
<!-- B&#45;&gt;28 -->
<g id="edge2" class="edge">
<title>B&#45;&gt;28</title>
<path fill="none" stroke="green" stroke-width="0.43" d="M55.73,-183.7C53.35,-176.73 49.76,-166.23 46.39,-156.39"/>
<polygon fill="green" stroke="green" stroke-width="0.43" points="49.7,-155.25 43.15,-146.92 43.07,-157.51 49.7,-155.25"/>
</g>
<!-- A XOR B -->
<g id="node3" class="node">
<title>A XOR B</title>
<ellipse fill="lightblue" stroke="black" cx="37.48" cy="-37.48" rx="37.45" ry="37.45"/>
<text text-anchor="middle" x="37.48" y="-35.28" font-family="Times,serif" font-size="9.00">A XOR B</text>
</g>
<!-- 28&#45;&gt;A XOR B -->
<g id="edge3" class="edge">
<title>28&#45;&gt;A XOR B</title>
<path fill="none" stroke="red" stroke-width="0.4" d="M37.48,-110.58C37.48,-103.23 37.48,-94.31 37.48,-85.29"/>
<polygon fill="red" stroke="red" stroke-width="0.4" points="40.98,-85.15 37.48,-75.15 33.98,-85.15 40.98,-85.15"/>
</g>
</g>
</svg>
